<svg width="32" height="32" viewBox="0 0 32 32" fill="none" xmlns="http://www.w3.org/2000/svg">
<path fill-rule="evenodd" clip-rule="evenodd" d="M20.8135 2.11176C23.0224 1.7962 24.9987 3.51023 24.9987 5.74157V7.57691C26.5846 8.41524 27.6654 10.0815 27.6654 12.0002V25.3336C27.6654 28.095 25.4268 30.3336 22.6654 30.3336H9.33203C6.57061 30.3336 4.33203 28.095 4.33203 25.3336V6.66688C4.33203 6.65449 4.33226 6.64214 4.3327 6.62985C4.33226 6.61067 4.33203 6.59142 4.33203 6.57212C4.33203 5.36379 5.22054 4.33932 6.41674 4.16844L20.8135 2.11176ZM6.33203 9.00022V25.3336C6.33203 26.9904 7.67518 28.3336 9.33203 28.3336H22.6654C24.3222 28.3336 25.6654 26.9904 25.6654 25.3336V12.0002C25.6654 10.3434 24.3222 9.00022 22.6654 9.00022H6.33203ZM6.76012 7.00022H22.9987V5.74157C22.9987 4.72733 22.1004 3.94822 21.0963 4.09166L6.69958 6.14834C6.48868 6.17847 6.33203 6.35908 6.33203 6.57212C6.33203 6.80855 6.52369 7.00022 6.76012 7.00022ZM9.66537 16.0002C9.66537 15.4479 10.1131 15.0002 10.6654 15.0002H21.332C21.8843 15.0002 22.332 15.4479 22.332 16.0002C22.332 16.5525 21.8843 17.0002 21.332 17.0002H10.6654C10.1131 17.0002 9.66537 16.5525 9.66537 16.0002ZM9.66537 20.6669C9.66537 20.1146 10.1131 19.6669 10.6654 19.6669H17.9987C18.551 19.6669 18.9987 20.1146 18.9987 20.6669C18.9987 21.2192 18.551 21.6669 17.9987 21.6669H10.6654C10.1131 21.6669 9.66537 21.2192 9.66537 20.6669Z" fill="#391D65"/>
</svg>
